<svg width="56" height="56" viewBox="0 0 56 56" fill="none" xmlns="http://www.w3.org/2000/svg">
<rect width="56" height="56" fill="white"/>
<path d="M14.3162 24.9611C15.263 21.4655 17.5537 18.4863 20.6851 16.6789L17.7523 11.6143C13.2768 14.1962 10.0063 18.4532 8.66235 23.4451L14.3162 24.9611Z" fill="#0B0E13"/>
<path d="M23.9891 15.3093C25.1411 15.0048 26.3261 14.8459 27.5178 14.8525V9C25.8164 9 24.1215 9.21848 22.473 9.65543L23.9891 15.3093Z" fill="#0B0E13"/>
<path d="M31.0721 15.315C34.5611 16.2617 37.5404 18.5524 39.3477 21.6839L44.419 18.7577C41.8304 14.2822 37.5735 11.0117 32.5882 9.66113L31.0721 15.315Z" fill="#0B0E13"/>
<path d="M8 28.4971C8 30.1985 8.21848 31.8934 8.66205 33.5419L14.3159 32.0258C14.0048 30.8738 13.8525 29.6888 13.8525 28.4971H8Z" fill="#0B0E13"/>
<path d="M10.6152 38.2544C11.4693 39.7241 12.5087 41.0813 13.707 42.2796L17.8647 38.1484C17.0239 37.301 16.2956 36.3543 15.6931 35.3281L10.6152 38.2544Z" fill="#0B0E13"/>
<path d="M17.7587 45.3916C20.718 47.1063 24.0812 48.0067 27.4974 48.0001V42.1476C25.1074 42.1476 22.7571 41.5186 20.6849 40.3203L17.7587 45.3916Z" fill="#0B0E13"/>
<path d="M39.3413 35.3428C37.5273 38.4676 34.5481 40.7517 31.0525 41.6852L32.5686 47.3391C37.5604 45.9951 41.8174 42.7312 44.406 38.2624L39.3413 35.3428Z" fill="#0B0E13"/>
<path d="M46.6041 33.536C47.5045 30.2258 47.5178 26.7368 46.6505 23.4199L40.9767 24.936C41.5858 27.2598 41.5726 29.7028 40.937 32.0199L46.6041 33.536Z" fill="#0B0E13"/>
</svg>
