<svg width="56" height="56" viewBox="0 0 56 56" fill="none" xmlns="http://www.w3.org/2000/svg">
<rect width="56" height="56" fill="white"/>
<path d="M28 9C16.9554 9 8 17.9578 8 28.9962C8 37.8321 13.7321 45.3187 21.6786 47.9652C21.79 47.9888 21.9038 48.0004 22.0179 48C22.7589 48 23.0446 47.469 23.0446 47.0076C23.0446 46.5288 23.0268 45.2752 23.0178 43.6038C22.3563 43.755 21.6795 43.8338 21 43.8388C17.1518 43.8388 16.2768 40.9225 16.2768 40.9225C15.3661 38.6156 14.0536 37.9975 14.0536 37.9975C12.3125 36.8049 14.0446 36.7701 14.1786 36.7701H14.1875C16.1964 36.9442 17.25 38.842 17.25 38.842C18.25 40.5482 19.5893 41.027 20.7857 41.027C21.5768 41.0116 22.3557 40.8336 23.0714 40.5047C23.25 39.2163 23.7678 38.337 24.3393 37.8321C19.9018 37.3272 15.2321 35.6123 15.2321 27.9516C15.2321 25.7665 16.0089 23.9819 17.2857 22.5891C17.0804 22.0841 16.3929 20.0471 17.4821 17.2962C17.6283 17.2621 17.7784 17.2475 17.9286 17.2527C18.6518 17.2527 20.2857 17.5225 22.9821 19.3507C26.2585 18.4569 29.7236 18.4569 33 19.3507C35.6964 17.5225 37.3303 17.2527 38.0536 17.2527C38.2037 17.2475 38.3539 17.2621 38.5 17.2962C39.5893 20.0471 38.9018 22.0841 38.6964 22.5891C39.9732 23.9906 40.75 25.7752 40.75 27.9516C40.75 35.6297 36.0714 37.3185 31.6161 37.8147C32.3303 38.4328 32.9732 39.6516 32.9732 41.5145C32.9732 44.187 32.9464 46.346 32.9464 46.9989C32.9464 47.469 33.2232 48 33.9643 48C34.0842 48.0005 34.2039 47.9888 34.3214 47.9652C42.2768 45.3187 48 37.8234 48 28.9962C48 17.9578 39.0446 9 28 9Z" fill="#171D26"/>
</svg>
