<svg width="56" height="56" viewBox="0 0 56 56" fill="none" xmlns="http://www.w3.org/2000/svg">
<rect width="56" height="56" fill="white"/>
<path d="M28.74 11.0107C29.8968 10.9619 31.286 11.0842 32.42 11.2931C35.437 11.8569 38.2526 13.2047 40.5837 15.2011C40.8112 15.3935 41.8334 16.2027 41.765 16.4871C41.6306 16.5648 41.0237 16.4156 40.825 16.3938C40.5069 16.3571 40.187 16.3391 39.8668 16.3399C38.1115 16.3573 37.2386 17.002 35.9064 15.1454C35.7971 14.9931 35.5028 14.5751 35.3435 14.4727C35.2774 14.4303 35.2568 14.4559 35.1957 14.4803C35.1139 14.6376 35.349 15.2362 35.4105 15.4407C35.9287 17.1634 34.0006 18.0023 32.7987 18.9038C32.2966 19.2797 31.8268 19.6969 31.3941 20.1509C30.9902 20.5714 29.9942 21.9521 29.6117 22.0536C29.2258 21.9626 29.1663 21.0198 29.1471 20.7138C29.0706 19.6068 29.4337 17.9223 30.1329 17.019C31.3358 15.465 30.1427 14.0844 28.3576 14.3054C24.5325 14.7789 20.8779 18.6792 21.2002 22.6667C21.415 25.3239 23.3389 27.6719 26.2205 27.536C28.9131 27.3374 31.0942 24.4285 32.6034 22.4781C32.8899 22.1131 33.5801 20.9609 34.0482 20.7707C34.1075 20.7457 34.3495 20.8483 34.3619 20.8958C34.6152 21.865 34.5293 23.5899 34.4782 24.5387C33.8649 33.2982 27.7503 42.0949 18.207 42.3082C14.4855 42.3914 10.8309 39.4406 9.25834 36.2559C9.04213 35.8179 8.68108 35.0108 9.57347 34.9689C10.0192 34.9869 10.6353 35.2256 11.118 35.2889C11.7771 35.3752 12.3874 35.3443 13.0397 35.4019C12.1714 33.2591 11.7459 31.4383 11.6564 29.1124C11.5123 24.472 13.2192 19.9647 16.4009 16.5838C19.5971 13.1424 24.0449 11.1335 28.74 11.0107Z" fill="#290043"/>
<path d="M29.5163 29.3467C31.0645 29.3449 30.7877 31.3543 29.3223 31.6713C27.9299 31.7792 28.0014 29.7306 29.5163 29.3467Z" fill="white"/>
<path d="M37.1072 18.1348L37.178 18.1679C40.7509 26.9877 37.9785 38.5006 29.5364 43.5006C27.2497 44.8548 24.99 45.237 22.4043 44.5671C21.6974 44.3739 21.1514 44.099 20.4929 43.7907C22.0276 43.4661 23.2253 43.1618 24.681 42.4974C31.7401 39.2856 35.9216 31.6201 36.1859 24.0452C36.2401 22.4884 36.1504 20.9998 36.0163 19.4539C35.9564 18.7591 36.5281 18.3802 37.1072 18.1348Z" fill="#FC3456"/>
<path d="M39.4908 17.5762C39.5652 17.5667 39.7484 17.5662 39.8313 17.5635C40.12 17.9517 40.5008 18.7166 40.7066 19.146C41.9298 21.7156 42.6295 24.503 42.7642 27.3457C43.0542 32.5823 41.4401 38.1241 37.9568 42.1331C36.0123 44.3714 33.0337 45.8742 30.0504 46.035C29.4615 46.0929 28.6932 46.0661 28.0908 46.0556C32.294 44.2641 35.4495 41.3045 37.6163 37.2766C40.2669 32.2811 41.0342 26.4992 39.7781 20.9852C39.4816 19.6343 39.154 18.8898 38.7769 17.6337C39.0149 17.6169 39.2532 17.5977 39.4908 17.5762Z" fill="#FC3456"/>
<path d="M42.0229 18.0957C45.8572 19.7105 46.8611 25.7953 46.7165 29.4352C46.4948 34.0262 44.4691 38.3438 41.0799 41.4486C40.6589 41.8257 40.227 42.1909 39.7853 42.5432C40.1278 42.0504 40.4605 41.6317 40.8017 41.1115C41.7927 39.5853 42.5936 37.944 43.1869 36.2239C45.2212 30.2664 44.8025 23.7443 42.0229 18.0957Z" fill="#FC3456"/>
</svg>
